<mxfile host="app.diagrams.net" modified="2025-04-11T19:27:09.554Z" agent="Mozilla/5.0 (Windows NT 10.0; Win64; x64) AppleWebKit/537.36 (KHTML, like Gecko) Chrome/135.0.0.0 Safari/537.36" etag="yEhfU-SJJ-yr_WET_-C1" version="24.4.13" type="device">
  <diagram name="Página-1" id="nr-PxSGt2gYiTKCEkbyx">
    <mxGraphModel dx="2204" dy="1378" grid="1" gridSize="10" guides="1" tooltips="1" connect="1" arrows="1" fold="1" page="1" pageScale="1" pageWidth="1169" pageHeight="827" math="0" shadow="0">
      <root>
        <mxCell id="0" />
        <mxCell id="1" parent="0" />
        <mxCell id="mWMr3FDX46ECHGRZEkQB-34" style="edgeStyle=orthogonalEdgeStyle;rounded=0;orthogonalLoop=1;jettySize=auto;html=1;fontSize=15;" edge="1" parent="1" source="mWMr3FDX46ECHGRZEkQB-1" target="mWMr3FDX46ECHGRZEkQB-9">
          <mxGeometry relative="1" as="geometry">
            <Array as="points">
              <mxPoint x="185" y="-150" />
            </Array>
          </mxGeometry>
        </mxCell>
        <mxCell id="mWMr3FDX46ECHGRZEkQB-36" value="&lt;font style=&quot;font-size: 15px;&quot;&gt;Se replica&lt;/font&gt;" style="edgeLabel;html=1;align=center;verticalAlign=middle;resizable=0;points=[];fontSize=15;" vertex="1" connectable="0" parent="mWMr3FDX46ECHGRZEkQB-34">
          <mxGeometry x="0.1097" y="-3" relative="1" as="geometry">
            <mxPoint as="offset" />
          </mxGeometry>
        </mxCell>
        <mxCell id="mWMr3FDX46ECHGRZEkQB-35" style="edgeStyle=orthogonalEdgeStyle;rounded=0;orthogonalLoop=1;jettySize=auto;html=1;fontSize=15;" edge="1" parent="1" source="mWMr3FDX46ECHGRZEkQB-1" target="mWMr3FDX46ECHGRZEkQB-43">
          <mxGeometry relative="1" as="geometry">
            <mxPoint x="1254.999999999999" y="120" as="targetPoint" />
            <Array as="points">
              <mxPoint x="1255" y="-150" />
            </Array>
          </mxGeometry>
        </mxCell>
        <mxCell id="mWMr3FDX46ECHGRZEkQB-37" value="Se replica" style="edgeLabel;html=1;align=center;verticalAlign=middle;resizable=0;points=[];fontSize=15;" vertex="1" connectable="0" parent="mWMr3FDX46ECHGRZEkQB-35">
          <mxGeometry x="0.3381" y="4" relative="1" as="geometry">
            <mxPoint as="offset" />
          </mxGeometry>
        </mxCell>
        <mxCell id="mWMr3FDX46ECHGRZEkQB-1" value="Maquina Virtual 1 (Quito)" style="shape=module;align=left;spacingLeft=20;align=center;verticalAlign=top;whiteSpace=wrap;html=1;fontSize=15;" vertex="1" parent="1">
          <mxGeometry x="390" y="-270" width="580" height="360" as="geometry" />
        </mxCell>
        <mxCell id="mWMr3FDX46ECHGRZEkQB-2" value="&lt;div style=&quot;box-sizing: border-box; width: 100%; background: rgb(228, 228, 228); padding: 2px; font-size: 15px;&quot;&gt;centros_medicos&lt;table cellspacing=&quot;0&quot; cellpadding=&quot;2&quot; style=&quot;background-color: initial; font-size: 15px; width: 100%;&quot;&gt;&lt;tbody style=&quot;font-size: 15px;&quot;&gt;&lt;tr style=&quot;font-size: 15px;&quot;&gt;&lt;td style=&quot;font-size: 15px;&quot;&gt;PK&lt;/td&gt;&lt;td style=&quot;font-size: 15px;&quot;&gt;id&lt;/td&gt;&lt;/tr&gt;&lt;tr style=&quot;font-size: 15px;&quot;&gt;&lt;td style=&quot;font-size: 15px;&quot;&gt;&lt;br style=&quot;font-size: 15px;&quot;&gt;&lt;/td&gt;&lt;td style=&quot;font-size: 15px;&quot;&gt;nombre&lt;/td&gt;&lt;/tr&gt;&lt;tr style=&quot;font-size: 15px;&quot;&gt;&lt;td style=&quot;font-size: 15px;&quot;&gt;&lt;/td&gt;&lt;td style=&quot;font-size: 15px;&quot;&gt;ciudad&lt;br style=&quot;font-size: 15px;&quot;&gt;direccion&lt;/td&gt;&lt;/tr&gt;&lt;/tbody&gt;&lt;/table&gt;&lt;/div&gt;" style="verticalAlign=top;align=left;overflow=fill;html=1;whiteSpace=wrap;fontSize=15;" vertex="1" parent="1">
          <mxGeometry x="710" y="-220" width="180" height="100" as="geometry" />
        </mxCell>
        <mxCell id="mWMr3FDX46ECHGRZEkQB-3" value="&lt;div style=&quot;box-sizing: border-box; width: 100%; background: rgb(228, 228, 228); padding: 2px; font-size: 15px;&quot;&gt;especialidades&lt;table cellspacing=&quot;0&quot; cellpadding=&quot;2&quot; style=&quot;background-color: initial; font-size: 15px; width: 100%;&quot;&gt;&lt;tbody style=&quot;font-size: 15px;&quot;&gt;&lt;tr style=&quot;font-size: 15px;&quot;&gt;&lt;td style=&quot;font-size: 15px;&quot;&gt;PK&lt;/td&gt;&lt;td style=&quot;font-size: 15px;&quot;&gt;id&lt;/td&gt;&lt;/tr&gt;&lt;tr style=&quot;font-size: 15px;&quot;&gt;&lt;td style=&quot;font-size: 15px;&quot;&gt;&lt;br style=&quot;font-size: 15px;&quot;&gt;&lt;/td&gt;&lt;td style=&quot;font-size: 15px;&quot;&gt;especialidad&lt;/td&gt;&lt;/tr&gt;&lt;tr style=&quot;font-size: 15px;&quot;&gt;&lt;td style=&quot;font-size: 15px;&quot;&gt;&lt;/td&gt;&lt;td style=&quot;font-size: 15px;&quot;&gt;&lt;br style=&quot;font-size: 15px;&quot;&gt;&lt;/td&gt;&lt;/tr&gt;&lt;/tbody&gt;&lt;/table&gt;&lt;/div&gt;" style="verticalAlign=top;align=left;overflow=fill;html=1;whiteSpace=wrap;fontSize=15;" vertex="1" parent="1">
          <mxGeometry x="460" width="180" height="70" as="geometry" />
        </mxCell>
        <mxCell id="mWMr3FDX46ECHGRZEkQB-7" style="edgeStyle=orthogonalEdgeStyle;rounded=0;orthogonalLoop=1;jettySize=auto;html=1;fontSize=15;" edge="1" parent="1" source="mWMr3FDX46ECHGRZEkQB-4" target="mWMr3FDX46ECHGRZEkQB-2">
          <mxGeometry relative="1" as="geometry" />
        </mxCell>
        <mxCell id="mWMr3FDX46ECHGRZEkQB-8" style="edgeStyle=orthogonalEdgeStyle;rounded=0;orthogonalLoop=1;jettySize=auto;html=1;fontSize=15;" edge="1" parent="1" source="mWMr3FDX46ECHGRZEkQB-4" target="mWMr3FDX46ECHGRZEkQB-3">
          <mxGeometry relative="1" as="geometry" />
        </mxCell>
        <mxCell id="mWMr3FDX46ECHGRZEkQB-4" value="&lt;div style=&quot;box-sizing: border-box; width: 100%; background: rgb(228, 228, 228); padding: 2px; font-size: 15px;&quot;&gt;medicos&lt;table cellspacing=&quot;0&quot; cellpadding=&quot;2&quot; style=&quot;background-color: initial; font-size: 15px; width: 100%;&quot;&gt;&lt;tbody style=&quot;font-size: 15px;&quot;&gt;&lt;tr style=&quot;font-size: 15px;&quot;&gt;&lt;td style=&quot;font-size: 15px;&quot;&gt;PK&lt;/td&gt;&lt;td style=&quot;font-size: 15px;&quot;&gt;id&lt;/td&gt;&lt;/tr&gt;&lt;tr style=&quot;font-size: 15px;&quot;&gt;&lt;td style=&quot;font-size: 15px;&quot;&gt;&lt;br style=&quot;font-size: 15px;&quot;&gt;&lt;/td&gt;&lt;td style=&quot;font-size: 15px;&quot;&gt;nombre&lt;/td&gt;&lt;/tr&gt;&lt;tr style=&quot;font-size: 15px;&quot;&gt;&lt;td style=&quot;font-size: 15px;&quot;&gt;&lt;br style=&quot;font-size: 15px;&quot;&gt;FK&lt;/td&gt;&lt;td style=&quot;font-size: 15px;&quot;&gt;cedula&lt;br style=&quot;font-size: 15px;&quot;&gt;id_especialidad&lt;/td&gt;&lt;/tr&gt;&lt;tr style=&quot;font-size: 15px;&quot;&gt;&lt;td style=&quot;font-size: 15px;&quot;&gt;FK&lt;/td&gt;&lt;td style=&quot;font-size: 15px;&quot;&gt;id_centro_medico&lt;/td&gt;&lt;/tr&gt;&lt;/tbody&gt;&lt;/table&gt;&lt;br style=&quot;font-size: 15px;&quot;&gt;&lt;/div&gt;" style="verticalAlign=top;align=left;overflow=fill;html=1;whiteSpace=wrap;fontSize=15;" vertex="1" parent="1">
          <mxGeometry x="450" y="-180" width="180" height="130" as="geometry" />
        </mxCell>
        <mxCell id="mWMr3FDX46ECHGRZEkQB-5" value="&lt;div style=&quot;box-sizing: border-box; width: 100%; background: rgb(228, 228, 228); padding: 2px; font-size: 15px;&quot;&gt;usuarios&lt;br style=&quot;font-size: 15px;&quot;&gt;&lt;table cellspacing=&quot;0&quot; cellpadding=&quot;2&quot; style=&quot;background-color: initial; font-size: 15px; width: 100%;&quot;&gt;&lt;tbody style=&quot;font-size: 15px;&quot;&gt;&lt;tr style=&quot;font-size: 15px;&quot;&gt;&lt;td style=&quot;font-size: 15px;&quot;&gt;PK&lt;/td&gt;&lt;td style=&quot;font-size: 15px;&quot;&gt;id&lt;/td&gt;&lt;/tr&gt;&lt;tr style=&quot;font-size: 15px;&quot;&gt;&lt;td style=&quot;font-size: 15px;&quot;&gt;&lt;br style=&quot;font-size: 15px;&quot;&gt;&lt;/td&gt;&lt;td style=&quot;font-size: 15px;&quot;&gt;usuario&lt;/td&gt;&lt;/tr&gt;&lt;tr style=&quot;font-size: 15px;&quot;&gt;&lt;td style=&quot;font-size: 15px;&quot;&gt;&lt;/td&gt;&lt;td style=&quot;font-size: 15px;&quot;&gt;contraseña&lt;br style=&quot;font-size: 15px;&quot;&gt;rol&lt;/td&gt;&lt;/tr&gt;&lt;tr style=&quot;font-size: 15px;&quot;&gt;&lt;td style=&quot;font-size: 15px;&quot;&gt;FK&lt;/td&gt;&lt;td style=&quot;font-size: 15px;&quot;&gt;id_centro_medico&lt;/td&gt;&lt;/tr&gt;&lt;/tbody&gt;&lt;/table&gt;&lt;/div&gt;" style="verticalAlign=top;align=left;overflow=fill;html=1;whiteSpace=wrap;fontSize=15;" vertex="1" parent="1">
          <mxGeometry x="700" y="-60" width="180" height="130" as="geometry" />
        </mxCell>
        <mxCell id="mWMr3FDX46ECHGRZEkQB-6" style="edgeStyle=orthogonalEdgeStyle;rounded=0;orthogonalLoop=1;jettySize=auto;html=1;fontSize=15;" edge="1" parent="1" source="mWMr3FDX46ECHGRZEkQB-5" target="mWMr3FDX46ECHGRZEkQB-2">
          <mxGeometry relative="1" as="geometry" />
        </mxCell>
        <mxCell id="mWMr3FDX46ECHGRZEkQB-9" value="Maquina Virtual 2 (Cuenca)" style="shape=module;align=left;spacingLeft=20;align=center;verticalAlign=top;whiteSpace=wrap;html=1;fontSize=15;" vertex="1" parent="1">
          <mxGeometry x="-200" y="110" width="890" height="440" as="geometry" />
        </mxCell>
        <mxCell id="mWMr3FDX46ECHGRZEkQB-42" value="&lt;p style=&quot;margin:0px;margin-top:4px;text-align:center;&quot;&gt;&lt;b&gt;Base de datos Local&lt;/b&gt;&lt;/p&gt;" style="verticalAlign=top;align=left;overflow=fill;html=1;whiteSpace=wrap;" vertex="1" parent="1">
          <mxGeometry x="380" y="145" width="280" height="375" as="geometry" />
        </mxCell>
        <mxCell id="mWMr3FDX46ECHGRZEkQB-10" value="&lt;div style=&quot;box-sizing: border-box; width: 100%; background: rgb(228, 228, 228); padding: 2px; font-size: 15px;&quot;&gt;pacientes&lt;table cellspacing=&quot;0&quot; cellpadding=&quot;2&quot; style=&quot;background-color: initial; font-size: 15px; width: 100%;&quot;&gt;&lt;tbody style=&quot;font-size: 15px;&quot;&gt;&lt;tr style=&quot;font-size: 15px;&quot;&gt;&lt;td style=&quot;font-size: 15px;&quot;&gt;PK&lt;/td&gt;&lt;td style=&quot;font-size: 15px;&quot;&gt;id&lt;/td&gt;&lt;/tr&gt;&lt;tr style=&quot;font-size: 15px;&quot;&gt;&lt;td style=&quot;font-size: 15px;&quot;&gt;&lt;br style=&quot;font-size: 15px;&quot;&gt;&lt;/td&gt;&lt;td style=&quot;font-size: 15px;&quot;&gt;nombre&lt;/td&gt;&lt;/tr&gt;&lt;tr style=&quot;font-size: 15px;&quot;&gt;&lt;td style=&quot;font-size: 15px;&quot;&gt;&lt;br style=&quot;font-size: 15px;&quot;&gt;&lt;/td&gt;&lt;td style=&quot;font-size: 15px;&quot;&gt;cedula&lt;br style=&quot;font-size: 15px;&quot;&gt;telefono&lt;/td&gt;&lt;/tr&gt;&lt;tr style=&quot;font-size: 15px;&quot;&gt;&lt;td style=&quot;font-size: 15px;&quot;&gt;&lt;/td&gt;&lt;td style=&quot;font-size: 15px;&quot;&gt;direccion&lt;/td&gt;&lt;/tr&gt;&lt;/tbody&gt;&lt;/table&gt;&lt;br style=&quot;font-size: 15px;&quot;&gt;&lt;/div&gt;" style="verticalAlign=top;align=left;overflow=fill;html=1;whiteSpace=wrap;fontSize=15;" vertex="1" parent="1">
          <mxGeometry x="405" y="193" width="180" height="110" as="geometry" />
        </mxCell>
        <mxCell id="mWMr3FDX46ECHGRZEkQB-41" value="&lt;p style=&quot;margin:0px;margin-top:4px;text-align:center;&quot;&gt;&lt;b&gt;Base de datos Replicada (Local)&lt;/b&gt;&lt;/p&gt;" style="verticalAlign=top;align=left;overflow=fill;html=1;whiteSpace=wrap;" vertex="1" parent="1">
          <mxGeometry x="-170" y="145" width="510" height="375" as="geometry" />
        </mxCell>
        <mxCell id="mWMr3FDX46ECHGRZEkQB-11" value="&lt;div style=&quot;box-sizing: border-box; width: 100%; background: rgb(228, 228, 228); padding: 2px; font-size: 15px;&quot;&gt;centros_medicos&lt;table cellspacing=&quot;0&quot; cellpadding=&quot;2&quot; style=&quot;background-color: initial; font-size: 15px; width: 100%;&quot;&gt;&lt;tbody style=&quot;font-size: 15px;&quot;&gt;&lt;tr style=&quot;font-size: 15px;&quot;&gt;&lt;td style=&quot;font-size: 15px;&quot;&gt;PK&lt;/td&gt;&lt;td style=&quot;font-size: 15px;&quot;&gt;id&lt;/td&gt;&lt;/tr&gt;&lt;tr style=&quot;font-size: 15px;&quot;&gt;&lt;td style=&quot;font-size: 15px;&quot;&gt;&lt;br style=&quot;font-size: 15px;&quot;&gt;&lt;/td&gt;&lt;td style=&quot;font-size: 15px;&quot;&gt;nombre&lt;/td&gt;&lt;/tr&gt;&lt;tr style=&quot;font-size: 15px;&quot;&gt;&lt;td style=&quot;font-size: 15px;&quot;&gt;&lt;/td&gt;&lt;td style=&quot;font-size: 15px;&quot;&gt;ciudad&lt;br style=&quot;font-size: 15px;&quot;&gt;direccion&lt;/td&gt;&lt;/tr&gt;&lt;/tbody&gt;&lt;/table&gt;&lt;/div&gt;" style="verticalAlign=top;align=left;overflow=fill;html=1;whiteSpace=wrap;fontSize=15;" vertex="1" parent="1">
          <mxGeometry x="140" y="180" width="180" height="90" as="geometry" />
        </mxCell>
        <mxCell id="mWMr3FDX46ECHGRZEkQB-12" value="&lt;div style=&quot;box-sizing: border-box; width: 100%; background: rgb(228, 228, 228); padding: 2px; font-size: 15px;&quot;&gt;especialidades&lt;table cellspacing=&quot;0&quot; cellpadding=&quot;2&quot; style=&quot;background-color: initial; font-size: 15px; width: 100%;&quot;&gt;&lt;tbody style=&quot;font-size: 15px;&quot;&gt;&lt;tr style=&quot;font-size: 15px;&quot;&gt;&lt;td style=&quot;font-size: 15px;&quot;&gt;PK&lt;/td&gt;&lt;td style=&quot;font-size: 15px;&quot;&gt;id&lt;/td&gt;&lt;/tr&gt;&lt;tr style=&quot;font-size: 15px;&quot;&gt;&lt;td style=&quot;font-size: 15px;&quot;&gt;&lt;br style=&quot;font-size: 15px;&quot;&gt;&lt;/td&gt;&lt;td style=&quot;font-size: 15px;&quot;&gt;especialidad&lt;/td&gt;&lt;/tr&gt;&lt;tr style=&quot;font-size: 15px;&quot;&gt;&lt;td style=&quot;font-size: 15px;&quot;&gt;&lt;/td&gt;&lt;td style=&quot;font-size: 15px;&quot;&gt;&lt;br style=&quot;font-size: 15px;&quot;&gt;&lt;/td&gt;&lt;/tr&gt;&lt;/tbody&gt;&lt;/table&gt;&lt;/div&gt;" style="verticalAlign=top;align=left;overflow=fill;html=1;whiteSpace=wrap;fontSize=15;" vertex="1" parent="1">
          <mxGeometry x="-160" y="180" width="180" height="70" as="geometry" />
        </mxCell>
        <mxCell id="mWMr3FDX46ECHGRZEkQB-13" style="edgeStyle=orthogonalEdgeStyle;rounded=0;orthogonalLoop=1;jettySize=auto;html=1;fontSize=15;" edge="1" parent="1" source="mWMr3FDX46ECHGRZEkQB-15" target="mWMr3FDX46ECHGRZEkQB-11">
          <mxGeometry relative="1" as="geometry">
            <Array as="points">
              <mxPoint x="190" y="280" />
            </Array>
          </mxGeometry>
        </mxCell>
        <mxCell id="mWMr3FDX46ECHGRZEkQB-14" style="edgeStyle=orthogonalEdgeStyle;rounded=0;orthogonalLoop=1;jettySize=auto;html=1;fontSize=15;" edge="1" parent="1" source="mWMr3FDX46ECHGRZEkQB-15" target="mWMr3FDX46ECHGRZEkQB-12">
          <mxGeometry relative="1" as="geometry" />
        </mxCell>
        <mxCell id="mWMr3FDX46ECHGRZEkQB-15" value="&lt;div style=&quot;box-sizing: border-box; width: 100%; background: rgb(228, 228, 228); padding: 2px; font-size: 15px;&quot;&gt;medicos&lt;table cellspacing=&quot;0&quot; cellpadding=&quot;2&quot; style=&quot;background-color: initial; font-size: 15px; width: 100%;&quot;&gt;&lt;tbody style=&quot;font-size: 15px;&quot;&gt;&lt;tr style=&quot;font-size: 15px;&quot;&gt;&lt;td style=&quot;font-size: 15px;&quot;&gt;PK&lt;/td&gt;&lt;td style=&quot;font-size: 15px;&quot;&gt;id&lt;/td&gt;&lt;/tr&gt;&lt;tr style=&quot;font-size: 15px;&quot;&gt;&lt;td style=&quot;font-size: 15px;&quot;&gt;&lt;br style=&quot;font-size: 15px;&quot;&gt;&lt;/td&gt;&lt;td style=&quot;font-size: 15px;&quot;&gt;nombre&lt;/td&gt;&lt;/tr&gt;&lt;tr style=&quot;font-size: 15px;&quot;&gt;&lt;td style=&quot;font-size: 15px;&quot;&gt;&lt;br style=&quot;font-size: 15px;&quot;&gt;FK&lt;/td&gt;&lt;td style=&quot;font-size: 15px;&quot;&gt;cedula&lt;br style=&quot;font-size: 15px;&quot;&gt;id_especialidad&lt;/td&gt;&lt;/tr&gt;&lt;tr style=&quot;font-size: 15px;&quot;&gt;&lt;td style=&quot;font-size: 15px;&quot;&gt;FK&lt;/td&gt;&lt;td style=&quot;font-size: 15px;&quot;&gt;id_centro_medico&lt;/td&gt;&lt;/tr&gt;&lt;/tbody&gt;&lt;/table&gt;&lt;br style=&quot;font-size: 15px;&quot;&gt;&lt;/div&gt;" style="verticalAlign=top;align=left;overflow=fill;html=1;whiteSpace=wrap;fontSize=15;" vertex="1" parent="1">
          <mxGeometry x="-160" y="303" width="180" height="130" as="geometry" />
        </mxCell>
        <mxCell id="mWMr3FDX46ECHGRZEkQB-16" value="&lt;div style=&quot;box-sizing: border-box; width: 100%; background: rgb(228, 228, 228); padding: 2px; font-size: 15px;&quot;&gt;usuarios&lt;br style=&quot;font-size: 15px;&quot;&gt;&lt;table cellspacing=&quot;0&quot; cellpadding=&quot;2&quot; style=&quot;background-color: initial; font-size: 15px; width: 100%;&quot;&gt;&lt;tbody style=&quot;font-size: 15px;&quot;&gt;&lt;tr style=&quot;font-size: 15px;&quot;&gt;&lt;td style=&quot;font-size: 15px;&quot;&gt;PK&lt;/td&gt;&lt;td style=&quot;font-size: 15px;&quot;&gt;id&lt;/td&gt;&lt;/tr&gt;&lt;tr style=&quot;font-size: 15px;&quot;&gt;&lt;td style=&quot;font-size: 15px;&quot;&gt;&lt;br style=&quot;font-size: 15px;&quot;&gt;&lt;/td&gt;&lt;td style=&quot;font-size: 15px;&quot;&gt;usuario&lt;/td&gt;&lt;/tr&gt;&lt;tr style=&quot;font-size: 15px;&quot;&gt;&lt;td style=&quot;font-size: 15px;&quot;&gt;&lt;/td&gt;&lt;td style=&quot;font-size: 15px;&quot;&gt;contraseña&lt;br style=&quot;font-size: 15px;&quot;&gt;rol&lt;/td&gt;&lt;/tr&gt;&lt;tr style=&quot;font-size: 15px;&quot;&gt;&lt;td style=&quot;font-size: 15px;&quot;&gt;FK&lt;/td&gt;&lt;td style=&quot;font-size: 15px;&quot;&gt;id_centro_medico&lt;/td&gt;&lt;/tr&gt;&lt;/tbody&gt;&lt;/table&gt;&lt;/div&gt;" style="verticalAlign=top;align=left;overflow=fill;html=1;whiteSpace=wrap;fontSize=15;" vertex="1" parent="1">
          <mxGeometry x="120" y="340" width="180" height="130" as="geometry" />
        </mxCell>
        <mxCell id="mWMr3FDX46ECHGRZEkQB-17" style="edgeStyle=orthogonalEdgeStyle;rounded=0;orthogonalLoop=1;jettySize=auto;html=1;fontSize=15;" edge="1" parent="1" source="mWMr3FDX46ECHGRZEkQB-16" target="mWMr3FDX46ECHGRZEkQB-11">
          <mxGeometry relative="1" as="geometry" />
        </mxCell>
        <mxCell id="mWMr3FDX46ECHGRZEkQB-20" style="edgeStyle=orthogonalEdgeStyle;rounded=0;orthogonalLoop=1;jettySize=auto;html=1;fontSize=15;" edge="1" parent="1" source="mWMr3FDX46ECHGRZEkQB-19" target="mWMr3FDX46ECHGRZEkQB-15">
          <mxGeometry relative="1" as="geometry">
            <Array as="points">
              <mxPoint x="-70" y="490" />
            </Array>
          </mxGeometry>
        </mxCell>
        <mxCell id="mWMr3FDX46ECHGRZEkQB-21" style="edgeStyle=orthogonalEdgeStyle;rounded=0;orthogonalLoop=1;jettySize=auto;html=1;fontSize=15;" edge="1" parent="1" source="mWMr3FDX46ECHGRZEkQB-19" target="mWMr3FDX46ECHGRZEkQB-10">
          <mxGeometry relative="1" as="geometry" />
        </mxCell>
        <mxCell id="mWMr3FDX46ECHGRZEkQB-19" value="&lt;div style=&quot;box-sizing: border-box; width: 100%; background: rgb(228, 228, 228); padding: 2px; font-size: 15px;&quot;&gt;consultas_medicas&lt;br style=&quot;font-size: 15px;&quot;&gt;&lt;table cellspacing=&quot;0&quot; cellpadding=&quot;2&quot; style=&quot;background-color: initial; font-size: 15px; width: 100%;&quot;&gt;&lt;tbody style=&quot;font-size: 15px;&quot;&gt;&lt;tr style=&quot;font-size: 15px;&quot;&gt;&lt;td style=&quot;font-size: 15px;&quot;&gt;PK&lt;/td&gt;&lt;td style=&quot;font-size: 15px;&quot;&gt;id&lt;/td&gt;&lt;/tr&gt;&lt;tr style=&quot;font-size: 15px;&quot;&gt;&lt;td style=&quot;font-size: 15px;&quot;&gt;&lt;br style=&quot;font-size: 15px;&quot;&gt;&lt;/td&gt;&lt;td style=&quot;font-size: 15px;&quot;&gt;fecha&lt;/td&gt;&lt;/tr&gt;&lt;tr style=&quot;font-size: 15px;&quot;&gt;&lt;td style=&quot;font-size: 15px;&quot;&gt;&lt;/td&gt;&lt;td style=&quot;font-size: 15px;&quot;&gt;hora&lt;br style=&quot;font-size: 15px;&quot;&gt;motivo/diagnostico&lt;/td&gt;&lt;/tr&gt;&lt;tr style=&quot;font-size: 15px;&quot;&gt;&lt;td style=&quot;font-size: 15px;&quot;&gt;FK&lt;/td&gt;&lt;td style=&quot;font-size: 15px;&quot;&gt;id_paciente&lt;/td&gt;&lt;/tr&gt;&lt;tr style=&quot;font-size: 15px;&quot;&gt;&lt;td style=&quot;font-size: 15px;&quot;&gt;FK&lt;/td&gt;&lt;td style=&quot;font-size: 15px;&quot;&gt;id_medico&lt;/td&gt;&lt;/tr&gt;&lt;/tbody&gt;&lt;/table&gt;&lt;/div&gt;" style="verticalAlign=top;align=left;overflow=fill;html=1;whiteSpace=wrap;fontSize=15;" vertex="1" parent="1">
          <mxGeometry x="420" y="360" width="180" height="150" as="geometry" />
        </mxCell>
        <mxCell id="mWMr3FDX46ECHGRZEkQB-43" value="Maquina Virtual 3 (Guayaquil)" style="shape=module;align=left;spacingLeft=20;align=center;verticalAlign=top;whiteSpace=wrap;html=1;fontSize=15;" vertex="1" parent="1">
          <mxGeometry x="820" y="130" width="890" height="440" as="geometry" />
        </mxCell>
        <mxCell id="mWMr3FDX46ECHGRZEkQB-44" value="&lt;p style=&quot;margin:0px;margin-top:4px;text-align:center;&quot;&gt;&lt;b&gt;Base de datos Local&lt;/b&gt;&lt;/p&gt;" style="verticalAlign=top;align=left;overflow=fill;html=1;whiteSpace=wrap;" vertex="1" parent="1">
          <mxGeometry x="1400" y="165" width="280" height="375" as="geometry" />
        </mxCell>
        <mxCell id="mWMr3FDX46ECHGRZEkQB-45" value="&lt;div style=&quot;box-sizing: border-box; width: 100%; background: rgb(228, 228, 228); padding: 2px; font-size: 15px;&quot;&gt;pacientes&lt;table cellspacing=&quot;0&quot; cellpadding=&quot;2&quot; style=&quot;background-color: initial; font-size: 15px; width: 100%;&quot;&gt;&lt;tbody style=&quot;font-size: 15px;&quot;&gt;&lt;tr style=&quot;font-size: 15px;&quot;&gt;&lt;td style=&quot;font-size: 15px;&quot;&gt;PK&lt;/td&gt;&lt;td style=&quot;font-size: 15px;&quot;&gt;id&lt;/td&gt;&lt;/tr&gt;&lt;tr style=&quot;font-size: 15px;&quot;&gt;&lt;td style=&quot;font-size: 15px;&quot;&gt;&lt;br style=&quot;font-size: 15px;&quot;&gt;&lt;/td&gt;&lt;td style=&quot;font-size: 15px;&quot;&gt;nombre&lt;/td&gt;&lt;/tr&gt;&lt;tr style=&quot;font-size: 15px;&quot;&gt;&lt;td style=&quot;font-size: 15px;&quot;&gt;&lt;br style=&quot;font-size: 15px;&quot;&gt;&lt;/td&gt;&lt;td style=&quot;font-size: 15px;&quot;&gt;cedula&lt;br style=&quot;font-size: 15px;&quot;&gt;telefono&lt;/td&gt;&lt;/tr&gt;&lt;tr style=&quot;font-size: 15px;&quot;&gt;&lt;td style=&quot;font-size: 15px;&quot;&gt;&lt;/td&gt;&lt;td style=&quot;font-size: 15px;&quot;&gt;direccion&lt;/td&gt;&lt;/tr&gt;&lt;/tbody&gt;&lt;/table&gt;&lt;br style=&quot;font-size: 15px;&quot;&gt;&lt;/div&gt;" style="verticalAlign=top;align=left;overflow=fill;html=1;whiteSpace=wrap;fontSize=15;" vertex="1" parent="1">
          <mxGeometry x="1425" y="213" width="180" height="110" as="geometry" />
        </mxCell>
        <mxCell id="mWMr3FDX46ECHGRZEkQB-46" value="&lt;p style=&quot;margin:0px;margin-top:4px;text-align:center;&quot;&gt;&lt;b&gt;Base de datos Replicada (Local)&lt;/b&gt;&lt;/p&gt;" style="verticalAlign=top;align=left;overflow=fill;html=1;whiteSpace=wrap;" vertex="1" parent="1">
          <mxGeometry x="850" y="165" width="510" height="375" as="geometry" />
        </mxCell>
        <mxCell id="mWMr3FDX46ECHGRZEkQB-47" value="&lt;div style=&quot;box-sizing: border-box; width: 100%; background: rgb(228, 228, 228); padding: 2px; font-size: 15px;&quot;&gt;centros_medicos&lt;table cellspacing=&quot;0&quot; cellpadding=&quot;2&quot; style=&quot;background-color: initial; font-size: 15px; width: 100%;&quot;&gt;&lt;tbody style=&quot;font-size: 15px;&quot;&gt;&lt;tr style=&quot;font-size: 15px;&quot;&gt;&lt;td style=&quot;font-size: 15px;&quot;&gt;PK&lt;/td&gt;&lt;td style=&quot;font-size: 15px;&quot;&gt;id&lt;/td&gt;&lt;/tr&gt;&lt;tr style=&quot;font-size: 15px;&quot;&gt;&lt;td style=&quot;font-size: 15px;&quot;&gt;&lt;br style=&quot;font-size: 15px;&quot;&gt;&lt;/td&gt;&lt;td style=&quot;font-size: 15px;&quot;&gt;nombre&lt;/td&gt;&lt;/tr&gt;&lt;tr style=&quot;font-size: 15px;&quot;&gt;&lt;td style=&quot;font-size: 15px;&quot;&gt;&lt;/td&gt;&lt;td style=&quot;font-size: 15px;&quot;&gt;ciudad&lt;br style=&quot;font-size: 15px;&quot;&gt;direccion&lt;/td&gt;&lt;/tr&gt;&lt;/tbody&gt;&lt;/table&gt;&lt;/div&gt;" style="verticalAlign=top;align=left;overflow=fill;html=1;whiteSpace=wrap;fontSize=15;" vertex="1" parent="1">
          <mxGeometry x="1160" y="200" width="180" height="90" as="geometry" />
        </mxCell>
        <mxCell id="mWMr3FDX46ECHGRZEkQB-48" value="&lt;div style=&quot;box-sizing: border-box; width: 100%; background: rgb(228, 228, 228); padding: 2px; font-size: 15px;&quot;&gt;especialidades&lt;table cellspacing=&quot;0&quot; cellpadding=&quot;2&quot; style=&quot;background-color: initial; font-size: 15px; width: 100%;&quot;&gt;&lt;tbody style=&quot;font-size: 15px;&quot;&gt;&lt;tr style=&quot;font-size: 15px;&quot;&gt;&lt;td style=&quot;font-size: 15px;&quot;&gt;PK&lt;/td&gt;&lt;td style=&quot;font-size: 15px;&quot;&gt;id&lt;/td&gt;&lt;/tr&gt;&lt;tr style=&quot;font-size: 15px;&quot;&gt;&lt;td style=&quot;font-size: 15px;&quot;&gt;&lt;br style=&quot;font-size: 15px;&quot;&gt;&lt;/td&gt;&lt;td style=&quot;font-size: 15px;&quot;&gt;especialidad&lt;/td&gt;&lt;/tr&gt;&lt;tr style=&quot;font-size: 15px;&quot;&gt;&lt;td style=&quot;font-size: 15px;&quot;&gt;&lt;/td&gt;&lt;td style=&quot;font-size: 15px;&quot;&gt;&lt;br style=&quot;font-size: 15px;&quot;&gt;&lt;/td&gt;&lt;/tr&gt;&lt;/tbody&gt;&lt;/table&gt;&lt;/div&gt;" style="verticalAlign=top;align=left;overflow=fill;html=1;whiteSpace=wrap;fontSize=15;" vertex="1" parent="1">
          <mxGeometry x="860" y="200" width="180" height="70" as="geometry" />
        </mxCell>
        <mxCell id="mWMr3FDX46ECHGRZEkQB-49" style="edgeStyle=orthogonalEdgeStyle;rounded=0;orthogonalLoop=1;jettySize=auto;html=1;fontSize=15;" edge="1" parent="1" source="mWMr3FDX46ECHGRZEkQB-51" target="mWMr3FDX46ECHGRZEkQB-47">
          <mxGeometry relative="1" as="geometry">
            <Array as="points">
              <mxPoint x="1210" y="300" />
            </Array>
          </mxGeometry>
        </mxCell>
        <mxCell id="mWMr3FDX46ECHGRZEkQB-50" style="edgeStyle=orthogonalEdgeStyle;rounded=0;orthogonalLoop=1;jettySize=auto;html=1;fontSize=15;" edge="1" parent="1" source="mWMr3FDX46ECHGRZEkQB-51" target="mWMr3FDX46ECHGRZEkQB-48">
          <mxGeometry relative="1" as="geometry" />
        </mxCell>
        <mxCell id="mWMr3FDX46ECHGRZEkQB-51" value="&lt;div style=&quot;box-sizing: border-box; width: 100%; background: rgb(228, 228, 228); padding: 2px; font-size: 15px;&quot;&gt;medicos&lt;table cellspacing=&quot;0&quot; cellpadding=&quot;2&quot; style=&quot;background-color: initial; font-size: 15px; width: 100%;&quot;&gt;&lt;tbody style=&quot;font-size: 15px;&quot;&gt;&lt;tr style=&quot;font-size: 15px;&quot;&gt;&lt;td style=&quot;font-size: 15px;&quot;&gt;PK&lt;/td&gt;&lt;td style=&quot;font-size: 15px;&quot;&gt;id&lt;/td&gt;&lt;/tr&gt;&lt;tr style=&quot;font-size: 15px;&quot;&gt;&lt;td style=&quot;font-size: 15px;&quot;&gt;&lt;br style=&quot;font-size: 15px;&quot;&gt;&lt;/td&gt;&lt;td style=&quot;font-size: 15px;&quot;&gt;nombre&lt;/td&gt;&lt;/tr&gt;&lt;tr style=&quot;font-size: 15px;&quot;&gt;&lt;td style=&quot;font-size: 15px;&quot;&gt;&lt;br style=&quot;font-size: 15px;&quot;&gt;FK&lt;/td&gt;&lt;td style=&quot;font-size: 15px;&quot;&gt;cedula&lt;br style=&quot;font-size: 15px;&quot;&gt;id_especialidad&lt;/td&gt;&lt;/tr&gt;&lt;tr style=&quot;font-size: 15px;&quot;&gt;&lt;td style=&quot;font-size: 15px;&quot;&gt;FK&lt;/td&gt;&lt;td style=&quot;font-size: 15px;&quot;&gt;id_centro_medico&lt;/td&gt;&lt;/tr&gt;&lt;/tbody&gt;&lt;/table&gt;&lt;br style=&quot;font-size: 15px;&quot;&gt;&lt;/div&gt;" style="verticalAlign=top;align=left;overflow=fill;html=1;whiteSpace=wrap;fontSize=15;" vertex="1" parent="1">
          <mxGeometry x="860" y="323" width="180" height="130" as="geometry" />
        </mxCell>
        <mxCell id="mWMr3FDX46ECHGRZEkQB-52" value="&lt;div style=&quot;box-sizing: border-box; width: 100%; background: rgb(228, 228, 228); padding: 2px; font-size: 15px;&quot;&gt;usuarios&lt;br style=&quot;font-size: 15px;&quot;&gt;&lt;table cellspacing=&quot;0&quot; cellpadding=&quot;2&quot; style=&quot;background-color: initial; font-size: 15px; width: 100%;&quot;&gt;&lt;tbody style=&quot;font-size: 15px;&quot;&gt;&lt;tr style=&quot;font-size: 15px;&quot;&gt;&lt;td style=&quot;font-size: 15px;&quot;&gt;PK&lt;/td&gt;&lt;td style=&quot;font-size: 15px;&quot;&gt;id&lt;/td&gt;&lt;/tr&gt;&lt;tr style=&quot;font-size: 15px;&quot;&gt;&lt;td style=&quot;font-size: 15px;&quot;&gt;&lt;br style=&quot;font-size: 15px;&quot;&gt;&lt;/td&gt;&lt;td style=&quot;font-size: 15px;&quot;&gt;usuario&lt;/td&gt;&lt;/tr&gt;&lt;tr style=&quot;font-size: 15px;&quot;&gt;&lt;td style=&quot;font-size: 15px;&quot;&gt;&lt;/td&gt;&lt;td style=&quot;font-size: 15px;&quot;&gt;contraseña&lt;br style=&quot;font-size: 15px;&quot;&gt;rol&lt;/td&gt;&lt;/tr&gt;&lt;tr style=&quot;font-size: 15px;&quot;&gt;&lt;td style=&quot;font-size: 15px;&quot;&gt;FK&lt;/td&gt;&lt;td style=&quot;font-size: 15px;&quot;&gt;id_centro_medico&lt;/td&gt;&lt;/tr&gt;&lt;/tbody&gt;&lt;/table&gt;&lt;/div&gt;" style="verticalAlign=top;align=left;overflow=fill;html=1;whiteSpace=wrap;fontSize=15;" vertex="1" parent="1">
          <mxGeometry x="1140" y="360" width="180" height="130" as="geometry" />
        </mxCell>
        <mxCell id="mWMr3FDX46ECHGRZEkQB-53" style="edgeStyle=orthogonalEdgeStyle;rounded=0;orthogonalLoop=1;jettySize=auto;html=1;fontSize=15;" edge="1" parent="1" source="mWMr3FDX46ECHGRZEkQB-52" target="mWMr3FDX46ECHGRZEkQB-47">
          <mxGeometry relative="1" as="geometry" />
        </mxCell>
        <mxCell id="mWMr3FDX46ECHGRZEkQB-54" style="edgeStyle=orthogonalEdgeStyle;rounded=0;orthogonalLoop=1;jettySize=auto;html=1;fontSize=15;" edge="1" parent="1" source="mWMr3FDX46ECHGRZEkQB-56" target="mWMr3FDX46ECHGRZEkQB-51">
          <mxGeometry relative="1" as="geometry">
            <Array as="points">
              <mxPoint x="950" y="510" />
            </Array>
          </mxGeometry>
        </mxCell>
        <mxCell id="mWMr3FDX46ECHGRZEkQB-55" style="edgeStyle=orthogonalEdgeStyle;rounded=0;orthogonalLoop=1;jettySize=auto;html=1;fontSize=15;" edge="1" parent="1" source="mWMr3FDX46ECHGRZEkQB-56" target="mWMr3FDX46ECHGRZEkQB-45">
          <mxGeometry relative="1" as="geometry" />
        </mxCell>
        <mxCell id="mWMr3FDX46ECHGRZEkQB-56" value="&lt;div style=&quot;box-sizing: border-box; width: 100%; background: rgb(228, 228, 228); padding: 2px; font-size: 15px;&quot;&gt;consultas_medicas&lt;br style=&quot;font-size: 15px;&quot;&gt;&lt;table cellspacing=&quot;0&quot; cellpadding=&quot;2&quot; style=&quot;background-color: initial; font-size: 15px; width: 100%;&quot;&gt;&lt;tbody style=&quot;font-size: 15px;&quot;&gt;&lt;tr style=&quot;font-size: 15px;&quot;&gt;&lt;td style=&quot;font-size: 15px;&quot;&gt;PK&lt;/td&gt;&lt;td style=&quot;font-size: 15px;&quot;&gt;id&lt;/td&gt;&lt;/tr&gt;&lt;tr style=&quot;font-size: 15px;&quot;&gt;&lt;td style=&quot;font-size: 15px;&quot;&gt;&lt;br style=&quot;font-size: 15px;&quot;&gt;&lt;/td&gt;&lt;td style=&quot;font-size: 15px;&quot;&gt;fecha&lt;/td&gt;&lt;/tr&gt;&lt;tr style=&quot;font-size: 15px;&quot;&gt;&lt;td style=&quot;font-size: 15px;&quot;&gt;&lt;/td&gt;&lt;td style=&quot;font-size: 15px;&quot;&gt;hora&lt;br style=&quot;font-size: 15px;&quot;&gt;motivo/diagnostico&lt;/td&gt;&lt;/tr&gt;&lt;tr style=&quot;font-size: 15px;&quot;&gt;&lt;td style=&quot;font-size: 15px;&quot;&gt;FK&lt;/td&gt;&lt;td style=&quot;font-size: 15px;&quot;&gt;id_paciente&lt;/td&gt;&lt;/tr&gt;&lt;tr style=&quot;font-size: 15px;&quot;&gt;&lt;td style=&quot;font-size: 15px;&quot;&gt;FK&lt;/td&gt;&lt;td style=&quot;font-size: 15px;&quot;&gt;id_medico&lt;/td&gt;&lt;/tr&gt;&lt;/tbody&gt;&lt;/table&gt;&lt;/div&gt;" style="verticalAlign=top;align=left;overflow=fill;html=1;whiteSpace=wrap;fontSize=15;" vertex="1" parent="1">
          <mxGeometry x="1440" y="380" width="180" height="150" as="geometry" />
        </mxCell>
      </root>
    </mxGraphModel>
  </diagram>
</mxfile>
